# xmcd
#
# Track frame offsets:
#	150
#	39329
#	68769
#	92324
#	134718
#	166396
#	195801
#	232273
#	254729
#	292987
#
# Disc length: 4287 seconds
#
# Revision: 1
# Processed by: cddbd v1.5.2PL0 Copyright (c) Steve Scherf et al.
# Submitted via: audiograbber 1.83.01
#
DISCID=8910bd0a
DTITLE=Grateful Dead - 80-08-30 The Spectrum, Philadelphia PA
DYEAR=1900
DGENRE=
TTITLE0=Feel Like A Stranger
TTITLE1=Peggy-O
TTITLE2=Cassidy
TTITLE3=Friend Of The Devil
TTITLE4=New Minglewood Blues
TTITLE5=Cold Rain and Snow
TTITLE6=Looks Like Rain
TTITLE7=Easy To Love You
TTITLE8=Althea
TTITLE9=Jack Straw
EXTD=
EXTT0=
EXTT1=
EXTT2=
EXTT3=
EXTT4=
EXTT5=
EXTT6=
EXTT7=
EXTT8=
EXTT9=
PLAYORDER=
